# xmcd
#
# Track frame offsets:
#	150
#	20067
#	35850
#	55165
#	71172
#	90225
#	105095
#	118517
#	132962
#	148912
#	163980
#	179827
#	195390
#	211415
#
# Disc length: 3025 seconds
#
# Revision: 0
# Processed by: cddbd v1.5.2PL0 Copyright (c) Steve Scherf et al.
# Submitted via: EasyCDDAExtractor 11.0.0.1
#
DISCID=d00bcf0e
DTITLE=Henrique and Ricardo
DYEAR=1900
DGENRE=Sertanejo
TTITLE0=Um Dia Vai Voltar
TTITLE1=Motoca
TTITLE2=Amor Por Correspondência
TTITLE3=Bebo Por Amor
TTITLE4=Lua Cheia
TTITLE5=Rodeio
TTITLE6=Solidão de Amigos
TTITLE7=Sonhador
TTITLE8=Eterno Namorado
TTITLE9=Dom de Atriz
TTITLE10=Pensando Nela
TTITLE11=Vivendo de Ilusão
TTITLE12=Força Oculta
TTITLE13=Caboclo na Cidade
EXTD=
EXTT0=
EXTT1=
EXTT2=
EXTT3=
EXTT4=
EXTT5=
EXTT6=
EXTT7=
EXTT8=
EXTT9=
EXTT10=
EXTT11=
EXTT12=
EXTT13=
PLAYORDER=
